HIERARCHY
ROOT Hips
{
    OFFSET   0.000000   0.000000   0.000000
    CHANNELS 6 Xposition Yposition Zposition Zrotation Xrotation Yrotation
    JOINT Chest
    {
        OFFSET   0.000000   8.007230   0.000000
        CHANNELS 3 Zrotation Xrotation Yrotation
        JOINT Chest2
        {
            OFFSET   0.000000  22.077100   0.000000
            CHANNELS 3 Zrotation Xrotation Yrotation
            JOINT Neck
            {
                OFFSET   0.000000  23.255100   0.000000
                CHANNELS 3 Zrotation Xrotation Yrotation
                JOINT Head
                {
                    OFFSET   0.000000  14.370100   1.956600
                    CHANNELS 3 Zrotation Xrotation Yrotation
                    End Site
                    {
                        OFFSET   0.000000  19.566000   0.000000
                    }
                }
            }
            JOINT LeftCollar
            {
                OFFSET   3.911900  19.017000  -0.467063
                CHANNELS 3 Zrotation Xrotation Yrotation
                JOINT LeftShoulder
                {
                    OFFSET  10.383700   0.000000   0.000000
                    CHANNELS 3 Zrotation Xrotation Yrotation
                    JOINT LeftElbow
                    {
                        OFFSET  26.662100   0.001193   0.000980
                        CHANNELS 3 Zrotation Xrotation Yrotation
                        JOINT LeftWrist
                        {
                            OFFSET  28.869000  -0.000059  -0.000082
                            CHANNELS 3 Zrotation Xrotation Yrotation
                            JOINT LeftFinger0
                            {
                                OFFSET   2.044650  -2.323450   3.252850
                                CHANNELS 3 Zrotation Xrotation Yrotation
                                JOINT LeftFinger01
                                {
                                    OFFSET   3.088130   0.000000   0.000000
                                    CHANNELS 3 Zrotation Xrotation Yrotation
                                    JOINT LeftFinger02
                                    {
                                        OFFSET   2.639460   0.000000   0.000000
                                        CHANNELS 3 Zrotation Xrotation Yrotation
                                        End Site
                                        {
                                            OFFSET   2.582190   0.000000   0.000000
                                        }
                                    }
                                }
                            }
                            JOINT LeftFinger1
                            {
                                OFFSET   8.364480   0.000000   3.252850
                                CHANNELS 3 Zrotation Xrotation Yrotation
                                JOINT LeftFinger11
                                {
                                    OFFSET   4.646930   0.000000   0.000000
                                    CHANNELS 3 Zrotation Xrotation Yrotation
                                    JOINT LeftFinger12
                                    {
                                        OFFSET   2.323470   0.000000   0.000000
                                        CHANNELS 3 Zrotation Xrotation Yrotation
                                        End Site
                                        {
                                            OFFSET   2.273050   0.000000   0.000000
                                        }
                                    }
                                }
                            }
                            JOINT LeftFinger2
                            {
                                OFFSET   8.364490   0.000016   1.078090
                                CHANNELS 3 Zrotation Xrotation Yrotation
                                JOINT LeftFinger21
                                {
                                    OFFSET   5.111610   0.000000   0.000000
                                    CHANNELS 3 Zrotation Xrotation Yrotation
                                    JOINT LeftFinger22
                                    {
                                        OFFSET   2.788150   0.000016   0.000000
                                        CHANNELS 3 Zrotation Xrotation Yrotation
                                        End Site
                                        {
                                            OFFSET   2.727660   0.000000   0.000000
                                        }
                                    }
                                }
                            }
                            JOINT LeftFinger3
                            {
                                OFFSET   7.899780   0.000015  -1.078090
                                CHANNELS 3 Zrotation Xrotation Yrotation
                                JOINT LeftFinger31
                                {
                                    OFFSET   4.646930   0.000000   0.000000
                                    CHANNELS 3 Zrotation Xrotation Yrotation
                                    JOINT LeftFinger32
                                    {
                                        OFFSET   2.323470   0.000000   0.000000
                                        CHANNELS 3 Zrotation Xrotation Yrotation
                                        End Site
                                        {
                                            OFFSET   2.273050   0.000000   0.000000
                                        }
                                    }
                                }
                            }
                            JOINT LeftFinger4
                            {
                                OFFSET   7.435090   0.000000  -3.252850
                                CHANNELS 3 Zrotation Xrotation Yrotation
                                JOINT LeftFinger41
                                {
                                    OFFSET   3.717550   0.000000   0.000000
                                    CHANNELS 3 Zrotation Xrotation Yrotation
                                    JOINT LeftFinger42
                                    {
                                        OFFSET   1.858770   0.000000   0.000000
                                        CHANNELS 3 Zrotation Xrotation Yrotation
                                        End Site
                                        {
                                            OFFSET   1.818440   0.000000   0.000000
                                        }
                                    }
                                }
                            }
                        }
                    }
                }
            }
            JOINT RightCollar
            {
                OFFSET  -3.911910  19.017000  -0.467062
                CHANNELS 3 Zrotation Xrotation Yrotation
                JOINT RightShoulder
                {
                    OFFSET -10.383700   0.000014   0.000000
                    CHANNELS 3 Zrotation Xrotation Yrotation
                    JOINT RightElbow
                    {
                        OFFSET -26.662100   0.001225   0.001091
                        CHANNELS 3 Zrotation Xrotation Yrotation
                        JOINT RightWrist
                        {
                            OFFSET -28.869000  -0.000020  -0.000085
                            CHANNELS 3 Zrotation Xrotation Yrotation
                            JOINT RightFinger0
                            {
                                OFFSET  -2.044650  -2.323490   3.252850
                                CHANNELS 3 Zrotation Xrotation Yrotation
                                JOINT RightFinger01
                                {
                                    OFFSET  -3.088130   0.000000   0.000000
                                    CHANNELS 3 Zrotation Xrotation Yrotation
                                    JOINT RightFinger02
                                    {
                                        OFFSET  -2.639460   0.000000   0.000000
                                        CHANNELS 3 Zrotation Xrotation Yrotation
                                        End Site
                                        {
                                            OFFSET  -2.582190   0.000000   0.000000
                                        }
                                    }
                                }
                            }
                            JOINT RightFinger1
                            {
                                OFFSET  -8.364480   0.000000   3.252850
                                CHANNELS 3 Zrotation Xrotation Yrotation
                                JOINT RightFinger11
                                {
                                    OFFSET  -4.646930   0.000000   0.000000
                                    CHANNELS 3 Zrotation Xrotation Yrotation
                                    JOINT RightFinger12
                                    {
                                        OFFSET  -2.323470   0.000000   0.000000
                                        CHANNELS 3 Zrotation Xrotation Yrotation
                                        End Site
                                        {
                                            OFFSET  -2.273050   0.000000   0.000000
                                        }
                                    }
                                }
                            }
                            JOINT RightFinger2
                            {
                                OFFSET  -8.364480   0.000000   1.078090
                                CHANNELS 3 Zrotation Xrotation Yrotation
                                JOINT RightFinger21
                                {
                                    OFFSET  -5.111620   0.000000   0.000000
                                    CHANNELS 3 Zrotation Xrotation Yrotation
                                    JOINT RightFinger22
                                    {
                                        OFFSET  -2.788160   0.000000   0.000000
                                        CHANNELS 3 Zrotation Xrotation Yrotation
                                        End Site
                                        {
                                            OFFSET  -2.727660   0.000000   0.000000
                                        }
                                    }
                                }
                            }
                            JOINT RightFinger3
                            {
                                OFFSET  -7.899780   0.000000  -1.078090
                                CHANNELS 3 Zrotation Xrotation Yrotation
                                JOINT RightFinger31
                                {
                                    OFFSET  -4.646930   0.000000   0.000000
                                    CHANNELS 3 Zrotation Xrotation Yrotation
                                    JOINT RightFinger32
                                    {
                                        OFFSET  -2.323470   0.000000   0.000000
                                        CHANNELS 3 Zrotation Xrotation Yrotation
                                        End Site
                                        {
                                            OFFSET  -2.273050   0.000000   0.000000
                                        }
                                    }
                                }
                            }
                            JOINT RightFinger4
                            {
                                OFFSET  -7.435090   0.000000  -3.252850
                                CHANNELS 3 Zrotation Xrotation Yrotation
                                JOINT RightFinger41
                                {
                                    OFFSET  -3.717550   0.000000   0.000000
                                    CHANNELS 3 Zrotation Xrotation Yrotation
                                    JOINT RightFinger42
                                    {
                                        OFFSET  -1.858760   0.000000   0.000000
                                        CHANNELS 3 Zrotation Xrotation Yrotation
                                        End Site
                                        {
                                            OFFSET  -1.818440   0.000000   0.000000
                                        }
                                    }
                                }
                            }
                        }
                    }
                }
            }
        }
    }
    JOINT LeftHip
    {
        OFFSET   9.783030   0.000000   0.000000
        CHANNELS 3 Zrotation Xrotation Yrotation
        JOINT LeftKnee
        {
            OFFSET   0.000063 -41.789100   0.000608
            CHANNELS 3 Zrotation Xrotation Yrotation
            JOINT LeftAnkle
            {
                OFFSET   0.000048 -41.133200  -0.000184
                CHANNELS 3 Zrotation Xrotation Yrotation
                JOINT LeftToe
                {
                    OFFSET   0.000000  -6.358960  14.674500
                    CHANNELS 3 Zrotation Xrotation Yrotation
                    End Site
                    {
                        OFFSET   0.000000   0.000000   3.913200
                    }
                }
            }
        }
    }
    JOINT RightHip
    {
        OFFSET  -9.783030   0.000000   0.000000
        CHANNELS 3 Zrotation Xrotation Yrotation
        JOINT RightKnee
        {
            OFFSET   0.000071 -41.789100   0.001239
            CHANNELS 3 Zrotation Xrotation Yrotation
            JOINT RightAnkle
            {
                OFFSET   0.000037 -41.133200  -0.000166
                CHANNELS 3 Zrotation Xrotation Yrotation
                JOINT RightToe
                {
                    OFFSET   0.000000  -6.358960  14.674500
                    CHANNELS 3 Zrotation Xrotation Yrotation
                    End Site
                    {
                        OFFSET   0.000000   0.000000   3.913200
                    }
                }
            }
        }
    }
}
MOTION
Frames: 5
Frame Time:   0.016667
  1.869330  89.553200  -1.827330  -2.284380  -5.170510  -4.108270   0.742233   2.473940   0.730297   1.454850   4.956940   1.430410   0.739385   0.378117  -0.011497   1.214690   0.766148  -0.324618  -5.552620  -1.144610   1.560410 -76.381600  15.367900   2.505430  -0.591493  -0.917622 -17.914700  15.574400 -17.280600   6.176000  44.051500  38.701000 -78.044500 -25.907600   0.001131   0.000613  -7.953840   0.004105  -0.002048 -29.821000   5.116970  -8.844370 -24.712600  -0.004804  -0.008439 -17.298800  -0.002539  -0.013222 -28.652100  -0.859554   1.572310 -38.525900   0.000213   0.005842 -25.658300  -0.005963  -0.004396 -28.350900  -0.851167   1.576860 -34.811500  -0.001356   0.001142 -23.184500  -0.003630  -0.003792 -33.600500  -0.991258   1.492790 -50.420500  -0.003023   0.001903 -33.580000  -0.003772  -0.005140   9.894490   0.248167   6.522110  71.887900  11.272700  -6.653510  -1.551290  -7.759640  16.566000 -11.549100  -1.269390   0.780637 -51.195300  47.120900  93.627000  22.029700  -0.000782  -0.004092   6.009590  -0.000901  -0.001875  29.936600   5.558620   9.547900  24.873800   0.004380  -0.001278  17.411600   0.002406  -0.002372  28.784500   0.973492   1.771440  42.482100   0.003195   0.000195  28.293100   0.002220  -0.005162  28.457200  -0.277855  -0.527249  35.787100   0.000991   0.006454  23.834200  -0.014225   0.003814  32.751800  -0.324399  -0.504455  49.129500   0.000000  -0.000182  32.720300   0.005892   0.009161   0.557408   7.561770   5.428480   1.397780   0.168217  10.152300  -1.109480  -3.432410   4.902700  -0.000000   0.000000   0.000000   4.541690   6.654560  -4.600330  -1.047510   0.675146 -12.440400  -1.339630  -3.263840   1.864920   0.000000   0.000000   0.000000
  1.869560  89.553200  -1.827280  -2.284330  -5.170470  -4.108290   0.742248   2.480990   0.729739   1.454830   4.971040   1.429220   0.729840   0.378078  -0.011503   1.199070   0.766150  -0.308014  -5.552640  -1.144340   1.560390 -76.382300  15.377600   2.505540  -0.600085  -0.925982 -17.909200  15.566800 -17.264600   6.197480  44.088300  38.734500 -78.038000 -25.930100   0.001092   0.000588  -7.965160   0.004088  -0.002070 -29.816200   5.106690  -8.828620 -24.712600  -0.004769  -0.008453 -17.298800  -0.002522  -0.013242 -28.652100  -0.859555   1.572310 -38.504900   0.000214   0.005842 -25.644300  -0.005964  -0.004364 -28.350900  -0.851167   1.576860 -34.795200  -0.001357   0.001142 -23.173500  -0.003631  -0.003765 -33.589200  -0.991257   1.492790 -50.403500  -0.003023   0.001903 -33.568600  -0.003772  -0.005124   9.894490   0.248153   6.521960  71.888700  11.279500  -6.653670  -1.550960  -7.765400  16.556700 -11.562400  -1.291000   0.768055 -51.197000  47.122100  93.629200  22.031900  -0.000783  -0.004074   6.013320  -0.000902  -0.001870  29.953500   5.553160   9.532320  24.886600   0.004376  -0.001280  17.420600   0.002406  -0.002376  28.784900   0.967555   1.760620  42.500000   0.003199   0.000197  28.305000   0.002223  -0.005161  28.457200  -0.281735  -0.527919  35.797700   0.000988   0.006458  23.841200  -0.014222   0.003817  32.751800  -0.324824  -0.505093  49.129600   0.000000  -0.000183  32.720400   0.005884   0.009167   0.557106   7.566230   5.429900   1.398760   0.162832  10.152500  -1.109330  -3.432220   4.902730   0.000000   0.000000   0.000000   4.542390   6.653670  -4.606860  -1.047260   0.677463 -12.427300  -1.339160  -3.269910   1.862900  -0.000000   0.000000   0.000000
  1.869800  89.553200  -1.827140  -2.284250  -5.170390  -4.108310   0.742278   2.492430   0.728292   1.454820   4.993900   1.426200   0.714403   0.377804  -0.011508   1.173780   0.766153  -0.281225  -5.552670  -1.144060   1.560370 -76.383300  15.394100   2.505750  -0.615256  -0.942835 -17.898300  15.555500 -17.237800   6.230360  44.139700  38.785300 -78.037000 -25.953000   0.001006   0.000543  -7.976550   0.004055  -0.002119 -29.811300   5.096410  -8.812870 -24.712600  -0.004694  -0.008488 -17.298800  -0.002480  -0.013292 -28.652100  -0.859557   1.572310 -38.483800   0.000215   0.005841 -25.630200  -0.005966  -0.004289 -28.351000  -0.851165   1.576860 -34.778800  -0.001359   0.001143 -23.162600  -0.003632  -0.003702 -33.578000  -0.991253   1.492790 -50.386500  -0.003025   0.001904 -33.557300  -0.003772  -0.005083   9.894460   0.248055   6.521800  71.890600  11.295500  -6.654040  -1.549650  -7.779140  16.537900 -11.575700  -1.322990   0.748718 -51.208700  47.130700  93.644700  22.039300  -0.000790  -0.004043   6.019650  -0.000907  -0.001863  29.982700   5.545670   9.508780  24.909000   0.004368  -0.001289  17.436300   0.002406  -0.002382  28.785400   0.959166   1.745330  42.527400   0.003209   0.000202  28.323200   0.002230  -0.005158  28.457300  -0.287813  -0.530789  35.809800   0.000983   0.006468  23.849300  -0.014218   0.003824  32.751900  -0.326612  -0.507833  49.129700   0.000000  -0.000188  32.720400   0.005875   0.009173   0.556615   7.574550   5.434000   1.400380   0.154378  10.152600  -1.109180  -3.432030   4.902760  -0.000000   0.000000   0.000000   4.543040   6.652170  -4.613390  -1.047430   0.680418 -12.414200  -1.338750  -3.278740   1.858360  -0.000000   0.000000   0.000000
  1.868630  89.553200  -1.826930  -2.284210  -5.170300  -4.108310   0.742319   2.500510   0.725824   1.454920   5.010040   1.421170   0.702572   0.375711  -0.011460   1.154270   0.761750  -0.261415  -5.550740  -1.145910   1.560760 -76.383700  15.407000   2.510580  -0.628644  -0.961788 -17.884100  15.551500 -17.215900   6.254720  44.169000  38.816800 -78.057700 -25.953300   0.000888   0.000496  -7.976590   0.004021  -0.002186 -29.817000   5.097750  -8.813430 -24.717400  -0.004594  -0.008541 -17.302200  -0.002414  -0.013371 -28.652400  -0.855252   1.564430 -38.484900   0.000214   0.005845 -25.630900  -0.005968  -0.004181 -28.351200  -0.846913   1.568950 -34.784200  -0.001362   0.001143 -23.166200  -0.003632  -0.003611 -33.578700  -0.986295   1.485300 -50.387200  -0.003031   0.001904 -33.557800  -0.003773  -0.005023   9.891340   0.243855   6.521840  71.889800  11.317200  -6.650570  -1.546120  -7.798000  16.516300 -11.567500  -1.342880   0.737529 -51.229200  47.153900  93.685800  22.058000  -0.000810  -0.004016   6.026330  -0.000920  -0.001861  30.011500   5.543230   9.494350  24.931800   0.004360  -0.001306  17.452300   0.002400  -0.002386  28.785700   0.955299   1.738280  42.547200   0.003224   0.000208  28.336400   0.002240  -0.005149  28.457400  -0.292724  -0.538917  35.811600   0.000975   0.006484  23.850500  -0.014215   0.003833  32.751600  -0.331641  -0.515604  49.129400  -0.000028  -0.000197  32.720300   0.005878   0.009172   0.556357   7.585510   5.441860   1.402990   0.147488  10.152700  -1.110420  -3.438600   4.898180  -0.000000   0.000000   0.000000   4.546560   6.651490  -4.604810  -1.049600   0.680828 -12.419900  -1.339170  -3.282950   1.850330  -0.000000   0.000000   0.000000
  1.865720  89.553100  -1.826720  -2.284200  -5.170210  -4.108320   0.742352   2.509070   0.723174   1.455010   5.027120   1.415760   0.692255   0.372566  -0.011411   1.137240   0.754631  -0.243140  -5.547250  -1.150360   1.562180 -76.382400  15.422600   2.518320  -0.644112  -0.985563 -17.870400  15.545700 -17.193900   6.267280  44.189600  38.838700 -78.088200 -25.953500   0.000759   0.000448  -7.976630   0.003983  -0.002266 -29.826700   5.102200  -8.817270 -24.725700  -0.004481  -0.008605 -17.308100  -0.002339  -0.013466 -28.652900  -0.847078   1.549450 -38.490700   0.000213   0.005851 -25.634800  -0.005972  -0.004057 -28.351700  -0.838839   1.553920 -34.794300  -0.001365   0.001144 -23.173000  -0.003631  -0.003507 -33.582200  -0.976945   1.471030 -50.392100  -0.003039   0.001904 -33.561100  -0.003774  -0.004948   9.889290   0.230561   6.522120  71.887800  11.347100  -6.644670  -1.541360  -7.823430  16.490300 -11.549500  -1.352400   0.726598 -51.257400  47.181300  93.735100  22.071400  -0.000840  -0.003985   6.030410  -0.000937  -0.001860  30.034500   5.542280   9.484120  24.950100   0.004348  -0.001328  17.465100   0.002392  -0.002392  28.785800   0.953883   1.735690  42.557500   0.003246   0.000217  28.343300   0.002253  -0.005138  28.457500  -0.295437  -0.544845  35.811800   0.000965   0.006507  23.850700  -0.014212   0.003845  32.750200  -0.335305  -0.521273  49.127600  -0.000065  -0.000208  32.719000   0.005882   0.009171   0.555896   7.592580   5.449980   1.406680   0.143668  10.152800  -1.112400  -3.448550   4.890000  -0.000000   0.000000  -0.000000   4.552570   6.649680  -4.596220  -1.051200   0.681238 -12.425600  -1.340070  -3.285940   1.844810  -0.000000   0.000000   0.000000
